<?xml version="1.0" encoding="UTF-8"?>
<svg xmlns="http://www.w3.org/2000/svg" viewBox="0 0 180 180" role="img" aria-label="Joseph Iesue emblem">
  <defs>
    <linearGradient id="gold" x1="26" y1="26" x2="154" y2="154" gradientUnits="userSpaceOnUse">
      <stop offset="0" stop-color="#F5D873"/>
      <stop offset="0.52" stop-color="#DFB84E"/>
      <stop offset="1" stop-color="#C89428"/>
    </linearGradient>
  </defs>
  <path d="M 90.000,26.000 C 103.259,55.408 124.350,76.983 154.000,90.000 C 124.592,103.259 103.017,124.350 90.000,154.000 C 76.741,124.592 55.650,103.017 26.000,90.000 C 55.408,76.741 76.983,55.650 90.000,26.000 Z M 90.000,47.000 C 82.641,68.308 68.326,82.659 47.000,90.000 C 68.308,97.359 82.659,111.674 90.000,133.000 C 97.359,111.692 111.674,97.341 133.000,90.000 C 111.692,82.641 97.341,68.326 90.000,47.000 Z M 90.000,71.000 C 92.035,74.965 93.485,79.515 96.000,83.000 C 99.770,85.896 104.090,88.244 109.000,90.000 C 105.035,92.035 100.485,93.485 97.000,96.000 C 94.104,99.770 91.756,104.090 90.000,109.000 C 87.965,105.035 86.515,100.485 84.000,97.000 C 80.230,94.104 75.910,91.756 71.000,90.000 C 74.965,87.965 79.515,93.485 83.000,84.000 C 85.896,80.230 88.244,75.910 90.000,71.000 Z" fill="url(#gold)" fill-rule="evenodd"/>
</svg>
